HIERARCHY
ROOT Hips
{
	OFFSET 0.000000 0.000000 0.000000
	CHANNELS 6 Xposition Yposition Zposition Zrotation Yrotation Xrotation 
	JOINT LeftUpLeg_virtual
	{
		OFFSET 0.000000 0.000000 0.000000
		CHANNELS 3 Zrotation Yrotation Xrotation
		JOINT LeftUpLeg
		{
			OFFSET 10.205400 -3.823500 0.155100
			CHANNELS 3 Zrotation Yrotation Xrotation
			JOINT LeftLeg
			{
				OFFSET 0.708757 -12.982077 0.567790
				CHANNELS 3 Zrotation Yrotation Xrotation
				JOINT LeftFoot
				{
					OFFSET -0.708756 -10.717838 -2.184338
					CHANNELS 3 Zrotation Yrotation Xrotation
					JOINT LeftToeBase
					{
						OFFSET 0.108149 -7.191104 7.560241
						CHANNELS 3 Zrotation Yrotation Xrotation
						End Site
						{
							OFFSET 0.000000 0.000000 0.000000
						}
					}
				}
			}
		}
	}
	JOINT RightUpLeg_virtual
	{
		OFFSET 0.000000 0.000000 0.000000
		CHANNELS 3 Zrotation Yrotation Xrotation
		JOINT RightUpLeg
		{
			OFFSET -10.205400 -3.823500 0.005500
			CHANNELS 3 Zrotation Yrotation Xrotation
			JOINT RightLeg
			{
				OFFSET -0.708756 -12.982134 0.610632
				CHANNELS 3 Zrotation Yrotation Xrotation
				JOINT RightFoot
				{
					OFFSET 0.708754 -10.717769 -1.945823
					CHANNELS 3 Zrotation Yrotation Xrotation
					JOINT RightToeBase
					{
						OFFSET -0.108140 -7.191069 7.372968
						CHANNELS 3 Zrotation Yrotation Xrotation
						End Site
						{
							OFFSET 0.000000 0.000000 0.000000
						}
					}
				}
			}
		}
	}
	JOINT Spine_virtual
	{
		OFFSET 0.000000 0.000000 0.000000
		CHANNELS 3 Zrotation Yrotation Xrotation
		JOINT Spine
		{
			OFFSET 0.000000 6.876099 0.125700
			CHANNELS 3 Zrotation Yrotation Xrotation
			JOINT Spine1
			{
				OFFSET 0.000000 8.022060 0.146608
				CHANNELS 3 Zrotation Yrotation Xrotation
				JOINT Spine2
				{
					OFFSET 0.000000 9.168068 0.167552
					CHANNELS 3 Zrotation Yrotation Xrotation
					JOINT Neck_virtual
					{
						OFFSET 0.000000 0.000000 0.000000
						CHANNELS 3 Zrotation Yrotation Xrotation
						JOINT Neck
						{
							OFFSET 0.000000 10.314075 0.188496
							CHANNELS 3 Zrotation Yrotation Xrotation
							JOINT Head
							{
								OFFSET 0.000000 7.643700 -2.377400
								CHANNELS 3 Zrotation Yrotation Xrotation
								End Site
								{
									OFFSET 0.000000 0.000000 0.000000
								}
							}
						}
					}
					JOINT LeftShoulder_virtual
					{
						OFFSET 0.000000 0.000000 0.000000
						CHANNELS 3 Zrotation Yrotation Xrotation
						JOINT LeftShoulder
						{
							OFFSET 4.392200 8.824978 0.174984
							CHANNELS 3 Zrotation Yrotation Xrotation
							JOINT LeftArm
							{
								OFFSET 8.771219 -2.981674 -0.026999
								CHANNELS 3 Zrotation Yrotation Xrotation
								JOINT LeftForeArm
								{
									OFFSET 8.512804 0.000000 -0.000000
									CHANNELS 3 Zrotation Yrotation Xrotation
									JOINT LeftHand
									{
										OFFSET 18.484802 0.000000 -0.000000
										CHANNELS 3 Zrotation Yrotation Xrotation
										End Site
										{
											OFFSET 0.000000 0.000000 0.000000
										}
									}
								}
							}
						}
					}
					JOINT RightShoulder_virtual
					{
						OFFSET 0.000000 0.000000 0.000000
						CHANNELS 3 Zrotation Yrotation Xrotation
						JOINT RightShoulder
						{
							OFFSET -4.392200 8.824993 0.141379
							CHANNELS 3 Zrotation Yrotation Xrotation
							JOINT RightArm
							{
								OFFSET -8.771282 -2.981682 -0.094208
								CHANNELS 3 Zrotation Yrotation Xrotation
								JOINT RightForeArm
								{
									OFFSET -8.494598 0.000000 0.000000
									CHANNELS 3 Zrotation Yrotation Xrotation
									JOINT RightHand
									{
										OFFSET -18.483803 0.000000 0.000001
										CHANNELS 3 Zrotation Yrotation Xrotation
										End Site
										{
											OFFSET 0.000000 0.000000 0.000000
										}
									}
								}
							}
						}
					}
				}
			}
		}
	}
}
MOTION
Frames: 9
Frame Time: 0.033333
10.768540 13.551726 12.986720 -179.491511 -34.568851 179.457114 4.455652 -10.923662 2.890190 -16.891613 16.817109 -95.388885 10.628261 -8.920691 131.957424 -7.560813 0.207820 -11.186421 0.000000 0.000000 0.000000 5.899005 -5.791138 5.267697 -3.926481 -4.566468 -108.778802 -6.672249 -8.397028 123.344009 -17.755826 3.326090 -16.584821 0.000000 0.000000 0.000000 0.970321 -3.752392 5.480106 -7.189244 8.455277 -4.807460 1.791457 -2.177054 0.043644 -0.088615 0.047529 0.008931 1.218649 -0.524000 5.864802 -0.396595 -4.537272 35.870576 0.000000 0.000000 0.000000 2.853492 0.515510 0.155737 -15.894919 -27.316505 8.677953 -35.855724 -25.899205 -1.523665 -143.590316 -82.940749 142.782523 0.000000 0.000000 0.000000 -1.216979 1.462497 -0.169958 15.552286 11.075275 0.418236 -9.582642 -6.607798 -16.348842 174.059598 62.265254 170.312188 0.000000 0.000000 0.000000 
10.686073 13.531547 12.964298 -179.679655 -34.358556 179.534623 4.198104 -11.119484 3.070966 -16.946679 16.709033 -95.425051 10.548799 -9.090368 132.413558 -7.695677 0.286843 -11.589712 0.000000 0.000000 0.000000 5.765371 -6.068414 5.192346 -3.925825 -4.725284 -108.920993 -6.822747 -8.376725 123.426627 -17.277399 3.743049 -16.322286 0.000000 0.000000 0.000000 0.894473 -3.814302 5.305555 -7.134293 8.508780 -5.115150 1.801201 -2.301611 0.060095 -0.062648 0.001249 -0.024337 1.306685 -0.615691 5.970537 -0.629871 -4.068206 36.324455 0.000000 0.000000 0.000000 2.930848 0.380551 0.246603 -16.131264 -27.209177 8.726016 -35.653386 -26.027452 -1.671354 -138.501893 -83.593388 137.680699 0.000000 0.000000 0.000000 -1.088550 1.446738 -0.128692 15.289018 11.280133 0.483469 -9.651589 -6.946770 -16.091209 174.043479 62.059140 170.437931 0.000000 0.000000 0.000000 
10.574759 13.510403 12.927244 -179.431201 -34.086021 179.524187 4.340801 -11.190198 3.204864 -16.903709 16.538874 -95.278263 10.379260 -9.096781 132.848190 -8.038950 0.407119 -12.051036 0.000000 0.000000 0.000000 5.986263 -6.320694 5.027644 -4.018298 -4.988823 -109.045452 -7.229059 -8.140555 123.611534 -16.580243 4.583398 -16.416665 0.000000 0.000000 0.000000 1.092980 -4.016205 4.984636 -7.019051 8.566712 -5.404339 1.799193 -2.382398 0.091015 -0.095925 -0.022401 -0.013734 1.294778 -0.734905 6.059183 -0.820785 -3.930384 36.543691 0.000000 0.000000 0.000000 2.971071 0.392297 0.326146 -16.297098 -27.079508 8.628092 -35.740625 -26.437070 -1.462411 -128.031432 -84.548207 127.008911 0.000000 0.000000 0.000000 -1.092213 1.450860 -0.021381 15.084970 11.709080 0.558847 -9.457085 -7.345495 -15.801969 174.145973 61.989943 170.704951 0.000000 0.000000 0.000000 
10.455766 13.490469 12.886808 -179.415232 -33.897785 179.321385 4.316637 -11.242219 3.330563 -16.771555 16.298904 -94.916769 10.257586 -8.932675 133.341958 -8.225017 0.617857 -12.414244 0.000000 0.000000 0.000000 5.941770 -6.642291 4.964286 -4.140793 -5.106812 -108.922939 -7.237865 -8.080119 123.737032 -16.244785 5.046811 -16.296143 0.000000 0.000000 0.000000 1.051380 -4.176825 4.960111 -6.946299 8.614592 -5.528614 1.838720 -2.457329 0.116173 -0.083928 -0.061029 -0.053278 1.309081 -0.731919 6.074238 -1.111027 -3.559799 36.753801 0.000000 0.000000 0.000000 2.925499 0.343579 0.276784 -16.591841 -27.064399 8.816144 -35.741386 -27.032229 -1.155212 -112.670869 -85.394399 111.323730 0.000000 0.000000 0.000000 -1.047015 1.422667 0.034828 14.858849 12.105698 0.769692 -9.162433 -7.713539 -15.348477 174.126889 61.992470 170.825490 0.000000 0.000000 0.000000 
10.327456 13.468343 12.835872 -179.590207 -33.686783 179.409276 4.297729 -11.237397 3.468481 -16.826663 16.125348 -94.592164 10.257031 -8.793472 133.771372 -8.388152 0.717693 -12.753819 0.000000 0.000000 0.000000 5.752543 -6.765126 4.856570 -4.236079 -5.325719 -108.859029 -7.081365 -8.116485 124.010663 -16.107355 5.400751 -16.268737 0.000000 0.000000 0.000000 0.889846 -4.272763 4.818193 -6.964124 8.753993 -5.682279 1.862971 -2.392503 0.167790 -0.079462 0.018265 -0.031610 1.328235 -0.725279 6.005156 -1.428662 -3.239518 36.819938 0.000000 0.000000 0.000000 2.946534 0.257824 0.300741 -16.866894 -27.102317 8.729020 -35.920487 -27.690548 -0.661217 -90.849220 -85.718970 89.096929 0.000000 0.000000 0.000000 -1.037873 1.345902 -0.053381 14.533326 12.401993 0.960679 -8.804115 -8.055875 -14.927131 174.071046 62.078633 170.927396 0.000000 0.000000 0.000000 
10.194349 13.438618 12.793589 -179.369797 -33.673335 179.515307 4.646399 -11.351210 3.400324 -16.812886 16.011442 -94.356632 10.437199 -8.513859 134.022218 -8.580592 0.814075 -13.000893 0.000000 0.000000 0.000000 5.887314 -6.969585 4.686434 -4.445240 -5.659801 -108.908445 -7.120275 -8.007701 124.275551 -15.759480 6.105471 -16.498807 0.000000 0.000000 0.000000 1.029862 -4.480034 4.560846 -6.900744 8.767914 -5.855252 1.829408 -2.460659 0.171046 -0.066934 -0.048307 -0.028058 1.201595 -0.721294 6.044669 -1.650192 -3.213491 36.724558 0.000000 0.000000 0.000000 2.843787 0.324512 0.323908 -16.971174 -27.064205 8.697694 -36.075557 -28.174474 -0.416966 -73.994219 -85.512227 71.784988 0.000000 0.000000 0.000000 -1.128276 1.443450 0.083701 14.295519 12.885039 1.094285 -8.446125 -8.434230 -14.498166 174.011227 62.271723 171.005069 0.000000 0.000000 0.000000 
10.083485 13.404778 12.773288 -179.359183 -33.705303 179.499994 4.752302 -11.376320 3.419468 -16.921667 16.037031 -94.055065 10.723283 -8.205385 134.142101 -8.620276 0.978859 -13.232591 0.000000 0.000000 0.000000 5.811244 -7.131461 4.649097 -4.668750 -5.881934 -108.927085 -6.950669 -7.986815 124.477479 -15.701727 6.494768 -16.535304 0.000000 0.000000 0.000000 0.959501 -4.526909 4.525067 -6.927477 8.868766 -5.916712 1.822443 -2.412518 0.157120 -0.063875 -0.004773 -0.033799 1.152834 -0.720133 5.986344 -1.834883 -2.831455 36.609049 0.000000 0.000000 0.000000 2.796537 0.253081 0.387524 -17.087861 -27.101631 8.657791 -36.114318 -28.575544 -0.327340 -62.361703 -85.118699 59.730318 0.000000 0.000000 0.000000 -1.176174 1.369190 0.047244 14.116892 13.143421 1.297062 -8.143720 -8.601608 -14.142999 173.873052 62.476314 171.021694 0.000000 0.000000 0.000000 
9.990675 13.366285 12.765907 -179.378103 -33.934354 179.576397 4.819521 -11.512570 3.356055 -17.032538 16.104794 -93.857905 10.976747 -7.879805 134.247505 -8.582094 1.168461 -13.420297 0.000000 0.000000 0.000000 5.713927 -7.355837 4.573023 -4.877286 -6.074590 -109.042829 -6.688602 -8.005429 124.684666 -15.732200 6.779278 -16.536429 0.000000 0.000000 0.000000 0.894932 -4.589209 4.462706 -7.011070 8.841246 -5.967433 1.778869 -2.426752 0.128539 -0.081319 -0.025128 -0.019509 1.157885 -0.719247 5.912866 -2.018882 -2.610905 36.481157 0.000000 0.000000 0.000000 2.822447 0.261365 0.374415 -17.213473 -27.104721 8.588937 -36.207506 -28.774334 -0.409252 -55.119196 -84.602029 52.106168 0.000000 0.000000 0.000000 -1.155173 1.371613 -0.009839 13.978342 13.448367 1.508364 -7.919447 -8.725871 -13.864797 173.796199 62.801800 171.077237 0.000000 0.000000 0.000000 
9.920859 13.327106 12.766758 -179.388922 -34.207896 179.504284 4.850887 -11.583453 3.303346 -16.996342 16.157168 -93.633294 11.203383 -7.475584 134.341789 -8.519367 1.309569 -13.557507 0.000000 0.000000 0.000000 5.581867 -7.562079 4.601857 -4.757881 -5.929967 -109.108741 -5.808168 -8.183999 124.677085 -16.414604 6.276785 -16.430486 0.000000 0.000000 0.000000 0.799639 -4.589776 4.558548 -7.096080 8.761378 -5.968349 1.800342 -2.422787 0.086055 -0.077164 -0.036174 -0.012038 1.123285 -0.651906 5.804930 -2.218621 -2.324366 36.361035 0.000000 0.000000 0.000000 2.808253 0.230281 0.268756 -17.398607 -26.990469 8.541830 -36.217546 -28.841485 -0.616634 -50.697069 -84.172471 47.379349 0.000000 0.000000 0.000000 -1.178926 1.392361 -0.084101 13.889905 13.758251 1.764880 -7.843547 -8.750154 -13.543523 173.871850 63.133706 171.319518 0.000000 0.000000 0.000000 
